<?xml version="1.0" encoding="UTF-8"?>
<!DOCTYPE svg PUBLIC "-//W3C//DTD SVG 1.0//EN" "http://www.w3.org/TR/2001/REC-SVG-20010904/DTD/svg10.dtd">
<!-- Creator: CorelDRAW 2020 (64-Bit) -->
<svg xmlns="http://www.w3.org/2000/svg" xml:space="preserve" width="52.9528mm" height="52.9528mm" version="1.0" style="shape-rendering:geometricPrecision; text-rendering:geometricPrecision; image-rendering:optimizeQuality; fill-rule:evenodd; clip-rule:evenodd"
viewBox="0 0 504.96 504.96"
 xmlns:xlink="http://www.w3.org/1999/xlink"
 xmlns:xodm="http://www.corel.com/coreldraw/odm/2003">
 <defs>
  <style type="text/css">
   <![CDATA[
    .fil0 {fill:white}
    .fil1 {fill:white}
   ]]>
  </style>
 </defs>
 <g id="Layer_x0020_1">
  <metadata id="CorelCorpID_0Corel-Layer"/>
  <g id="_2127790136560">
   <path class="fil0" d="M461.98 261.11l0 -0.73c-14.3,-4.57 -50.85,-3.02 -67.66,-2.72 3.78,-38.26 8.54,-54.29 -7.11,-89.42 -7.58,-17.01 -15.74,-16.7 -14.76,-37.38 0.87,-18.36 -2.89,-28.93 -5.77,-45.04 -21.86,0.6 -40.6,7.8 -55.93,17.02 -15.63,9.4 -24.63,0.01 -61.66,-0.02 -39.52,-0.04 -45.65,9.3 -61.63,0 -14.21,-8.27 -35.5,-17.32 -56.02,-17.43 -6.08,12.74 -6.78,31.88 -5.2,47.23 1.24,12.05 4.48,12.14 -1.97,20.87 -30.07,40.7 -19.42,66.77 -14.88,104.23l-61.21 1.15c-4.68,1.5 -2.6,0.76 -5.21,3.29 22.7,1.05 65.65,-4.11 70.65,5.82 -19.39,1.12 -50.6,-1.97 -65.1,8.48 5.14,2.18 46.58,-4.1 68.67,-4.1 18.24,38.15 62.71,44.45 92.09,52.81 -6.29,10.5 -12.67,12.32 -15.63,29.86 -31.65,-1.18 -35.1,2.21 -55.46,-14.36 -11.32,-9.21 -21.8,-24.51 -43.52,-23.09 4.3,5.25 6.64,4.76 11.41,10.4 31.9,37.7 12.32,57.97 88.95,58.39 -0.86,31.1 4.02,46.65 -7.57,65.16 37.97,-0.57 31.32,-15.16 31.87,-63.03 0.15,-12.99 -1.63,-19.86 4.15,-25.27 3.47,6.6 1.67,36.22 1.63,45.82 -0.12,28.96 2.97,26.05 -5.87,42.77 37.91,1.33 32.16,-12.77 32.54,-63.31 0.04,-5.58 -0.21,-11.61 -0.08,-17.06 0.21,-9.44 -1.54,-7.87 4.75,-9.04 0.06,20.53 0.52,41.11 0.62,61.66 0.1,22.71 6.94,28.21 31.57,27.83 -4.4,-6.92 -5.23,-7.63 -5.9,-18.46 -0.9,-14.57 -2.55,-60.99 1.84,-69.73 0.89,1.39 1.01,1.23 1.88,4.11l0.88 9.49c0.05,4.96 -0.01,9.97 -0.02,14.93 -0.03,26.62 -3.9,45.73 11.76,52.77 6.69,3.01 15.55,4.9 23.68,4.1 -16.95,-13 -4.68,-68.5 -10.25,-97.7 -2.46,-12.88 -7.86,-15.53 -11.1,-24.52 34.11,-14.01 40.36,-3.69 71.63,-34.8 10,-9.95 6.2,-7.34 12.45,-15.52 2.42,-3.17 1.23,-1.86 3.66,-4.12 6.96,-2.79 59.52,5.52 64.49,4.83l2.41 -0.82c-11.79,-9.95 -50.75,-4.49 -64.65,-9.34 1.48,-4 -3.47,-4.49 16.37,-4.29 12.63,0.13 45.57,0.59 54.21,-1.72z"/>
   <path class="fil1" d="M252.48 0c139.44,0 252.48,113.04 252.48,252.48 0,139.44 -113.04,252.48 -252.48,252.48 -139.44,0 -252.48,-113.04 -252.48,-252.48 0,-139.44 113.04,-252.48 252.48,-252.48zm0 13.93c131.75,0 238.55,106.8 238.55,238.55 0,131.75 -106.8,238.55 -238.55,238.55 -131.75,0 -238.55,-106.8 -238.55,-238.55 0,-131.75 106.8,-238.55 238.55,-238.55z"/>
  </g>
 </g>
</svg>
