<?xml version="1.0" encoding="UTF-8"?>
<!DOCTYPE svg PUBLIC "-//W3C//DTD SVG 1.0//EN" "http://www.w3.org/TR/2001/REC-SVG-20010904/DTD/svg10.dtd">
<!-- Creator: CorelDRAW 2020 (64-Bit) -->
<svg xmlns="http://www.w3.org/2000/svg" xml:space="preserve" width="52.9528mm" height="52.9528mm" version="1.0" style="shape-rendering:geometricPrecision; text-rendering:geometricPrecision; image-rendering:optimizeQuality; fill-rule:evenodd; clip-rule:evenodd"
viewBox="0 0 1434.88 1434.88"
 xmlns:xlink="http://www.w3.org/1999/xlink"
 xmlns:xodm="http://www.corel.com/coreldraw/odm/2003">
 <defs>
  <style type="text/css">
   <![CDATA[
    .fil0 {fill:#551A8B}
   ]]>
  </style>
 </defs>
 <g id="Layer_x0020_1">
  <metadata id="CorelCorpID_0Corel-Layer"/>
  <g id="_2187246299600">
   <g id="_2127790136560">
    <path class="fil0" d="M1312.75 741.97l0 -2.08c-40.64,-12.99 -144.49,-8.58 -192.26,-7.73 10.74,-108.72 24.27,-154.27 -20.2,-254.1 -21.54,-48.34 -44.73,-47.46 -41.94,-106.22 2.47,-52.17 -8.21,-82.21 -16.4,-127.98 -62.12,1.7 -115.37,22.16 -158.93,48.36 -44.41,26.71 -69.99,0.03 -175.21,-0.06 -112.3,-0.11 -129.72,26.43 -175.13,0 -40.38,-23.5 -100.88,-49.22 -159.19,-49.53 -17.28,36.2 -19.27,90.59 -14.78,134.21 3.52,34.24 12.73,34.5 -5.6,59.3 -85.45,115.65 -55.18,189.73 -42.28,296.18l-173.93 3.27c-13.3,4.26 -7.39,2.16 -14.8,9.35 64.5,2.98 186.55,-11.68 200.76,16.54 -55.1,3.18 -143.78,-5.6 -184.99,24.1 14.61,6.19 132.36,-11.65 195.13,-11.65 51.83,108.41 178.2,126.31 261.68,150.06 -17.87,29.84 -36,35.01 -44.41,84.85 -89.94,-3.35 -99.74,6.28 -157.59,-40.81 -32.17,-26.17 -61.95,-69.65 -123.66,-65.61 12.22,14.92 18.87,13.53 32.42,29.55 90.65,107.13 35.01,164.73 252.76,165.92 -2.44,88.37 11.42,132.56 -21.51,185.16 107.89,-1.62 89,-43.08 90.56,-179.11 0.43,-36.91 -4.63,-56.43 11.79,-71.81 9.86,18.75 4.74,102.92 4.63,130.2 -0.34,82.29 8.44,74.02 -16.68,121.53 107.72,3.78 91.39,-36.29 92.46,-179.9 0.11,-15.85 -0.6,-32.99 -0.23,-48.48 0.6,-26.82 -4.38,-22.36 13.5,-25.69 0.17,58.34 1.48,116.82 1.76,175.21 0.28,64.53 19.72,80.16 89.71,79.08 -12.5,-19.66 -14.86,-21.68 -16.77,-52.46 -2.56,-41.4 -7.25,-173.31 5.23,-198.14 2.53,3.95 2.87,3.5 5.34,11.68l2.5 26.97c0.14,14.09 -0.03,28.33 -0.06,42.42 -0.08,75.64 -11.08,129.95 33.42,149.95 19.01,8.55 44.19,13.92 67.29,11.65 -48.17,-36.94 -13.3,-194.65 -29.13,-277.62 -6.99,-36.6 -22.33,-44.13 -31.54,-69.68 96.93,-39.81 114.69,-10.49 203.54,-98.89 28.42,-28.27 17.62,-20.86 35.38,-44.1 6.88,-9.01 3.5,-5.28 10.4,-11.71 19.78,-7.93 169.13,15.69 183.25,13.72l6.85 -2.33c-33.5,-28.27 -144.21,-12.76 -183.71,-26.54 4.21,-11.37 -9.86,-12.76 46.52,-12.19 35.89,0.37 129.49,1.68 154.04,-4.89l0 0z"/>
    <path class="fil0" d="M717.44 0c396.23,0 717.44,321.21 717.44,717.44 0,396.23 -321.21,717.44 -717.44,717.44 -396.23,0 -717.44,-321.21 -717.44,-717.44 0,-396.23 321.21,-717.44 717.44,-717.44zm0 39.58c374.38,0 677.86,303.48 677.86,677.86 0,374.38 -303.48,677.86 -677.86,677.86 -374.38,0 -677.86,-303.48 -677.86,-677.86 0,-374.38 303.48,-677.86 677.86,-677.86z"/>
   </g>
  </g>
 </g>
</svg>
