<?xml version="1.0" encoding="UTF-8"?>
<!DOCTYPE svg PUBLIC "-//W3C//DTD SVG 1.0//EN" "http://www.w3.org/TR/2001/REC-SVG-20010904/DTD/svg10.dtd">
<!-- Creator: CorelDRAW 2020 (64-Bit) -->
<svg xmlns="http://www.w3.org/2000/svg" xml:space="preserve" width="198.079mm" height="119.509mm" version="1.0" style="shape-rendering:geometricPrecision; text-rendering:geometricPrecision; image-rendering:optimizeQuality; fill-rule:evenodd; clip-rule:evenodd"
viewBox="0 0 7263.78 4382.53"
 xmlns:xlink="http://www.w3.org/1999/xlink"
 xmlns:xodm="http://www.corel.com/coreldraw/odm/2003">
 <defs>
  <style type="text/css">
   <![CDATA[
    .str0 {stroke:#AE4A84;stroke-width:7.33;stroke-miterlimit:22.9256;stroke-opacity:0.149020}
    .str1 {stroke:#FFED00;stroke-width:12.94;stroke-miterlimit:22.9256;stroke-opacity:0.250980}
    .str2 {stroke:#008DD2;stroke-width:12.94;stroke-miterlimit:22.9256;stroke-opacity:0.250980}
    .str4 {stroke:#AE4A84;stroke-width:7.33;stroke-miterlimit:22.9256;stroke-opacity:0.250980}
    .str3 {stroke:#AE4A84;stroke-width:12.94;stroke-miterlimit:22.9256;stroke-opacity:0.290196}
    .str5 {stroke:#57B039;stroke-width:12.94;stroke-miterlimit:22.9256;stroke-opacity:0.301961}
    .fil1 {fill:none}
    .fil0 {fill:#AE4A84;fill-rule:nonzero;fill-opacity:0.149020}
    .fil2 {fill:#FFED00;fill-opacity:0.250980}
    .fil8 {fill:#57B039;fill-opacity:0.250980}
    .fil4 {fill:#008DD2;fill-opacity:0.250980}
    .fil6 {fill:#FF4141;fill-opacity:0.250980}
    .fil9 {fill:#57B039;fill-opacity:0.278431}
    .fil5 {fill:#AE4A84;fill-opacity:0.290196}
    .fil7 {fill:#57B039;fill-opacity:0.301961}
    .fil3 {fill:#FF4141;fill-opacity:0.501961}
   ]]>
  </style>
 </defs>
 <g id="Layer_x0020_1">
  <metadata id="CorelCorpID_0Corel-Layer"/>
  <g id="_1308131560512">
   <path class="fil0" d="M5109.5 296.38c274.77,252.74 472.86,593.48 545.82,988.94 89.43,484.7 -26.05,959.73 -285.06,1335.94 -259.01,376.21 -661.55,653.6 -1146.26,743.03 -484.7,89.43 -959.73,-26.05 -1335.94,-285.06 -376.21,-259.01 -653.6,-661.55 -743.03,-1146.26 -89.43,-484.7 26.05,-959.73 285.06,-1335.94 75.25,-109.29 162.62,-210.22 260.59,-300.64l7.17 0c-99.27,91.09 -187.72,192.97 -263.75,303.41 -258.3,375.18 -373.46,848.92 -284.28,1332.3 89.18,483.38 365.82,884.83 741.01,1143.13 375.18,258.3 848.92,373.46 1332.3,284.28 483.38,-89.18 884.83,-365.82 1143.13,-741 258.3,-375.18 373.47,-848.92 284.28,-1332.3 -73.11,-396.24 -272.19,-737.4 -548.24,-989.81l7.21 0z"/>
   <path class="fil0" d="M4789.3 296.38c107.42,178.59 185.19,379.15 225.23,596.2 89.43,484.7 -26.05,959.73 -285.06,1335.94 -259.01,376.21 -661.55,653.6 -1146.26,743.03 -484.7,89.43 -959.73,-26.05 -1335.94,-285.06 -376.21,-259.01 -653.6,-661.55 -743.03,-1146.26 -82.28,-445.95 8.9,-883.71 225.73,-1243.85l5.67 0c-217.32,359.63 -308.86,797.2 -226.61,1242.97 89.18,483.38 365.82,884.83 741.01,1143.13 375.18,258.3 848.92,373.46 1332.3,284.28 483.38,-89.18 884.83,-365.82 1143.13,-741 258.3,-375.18 373.47,-848.92 284.28,-1332.3 -40.13,-217.47 -118.21,-418.35 -226.12,-597.08l5.67 0z"/>
   <path class="fil0" d="M3655.86 296.38c94.98,168.01 164.14,354.4 201.12,554.86 89.43,484.7 -26.05,959.73 -285.06,1335.94 -259.01,376.21 -661.55,653.6 -1146.26,743.03 -484.7,89.42 -959.73,-26.05 -1335.94,-285.06 -376.21,-259.01 -653.6,-661.55 -743.03,-1146.26 -79.15,-429.02 2.25,-850.46 201.61,-1202.51l5.58 0c-199.8,351.57 -281.52,772.8 -202.4,1201.63 89.18,483.38 365.82,884.83 741.01,1143.13 375.18,258.3 848.92,373.46 1332.3,284.28 483.38,-89.18 884.83,-365.82 1143.13,-741.01 258.3,-375.18 373.47,-848.91 284.28,-1332.3 -37.06,-200.86 -106.51,-387.56 -201.93,-555.74l5.6 0z"/>
   <path class="fil0" d="M2149.44 296.38c201.45,232.37 345.46,519.91 405.31,844.24 89.43,484.7 -26.05,959.74 -285.06,1335.95 -259.01,376.21 -661.55,653.6 -1146.26,743.02 -397.36,73.31 -788.19,8.89 -1123.43,-159.4l0 -5.45c334.81,168.65 725.42,233.33 1122.55,160.06 483.38,-89.18 884.83,-365.82 1143.13,-741 258.3,-375.18 373.46,-848.92 284.28,-1332.3 -59.95,-324.93 -204.6,-612.83 -406.95,-845.12l6.42 0z"/>
   <path class="fil1 str0" d="M5300.07 1433.34c493.2,-91 966.72,235 1057.71,728.2 91,493.2 -235,966.72 -728.21,1057.71 -493.2,91 -966.71,-235 -1057.71,-728.21 -91,-493.2 235,-966.71 728.2,-1057.71z"/>
   <path class="fil0" d="M6334.03 629.59l-0.25 0.05c-245.83,45.42 -449.99,186.14 -581.37,376.97 -131.42,190.88 -190.01,431.92 -144.64,677.86l0.05 0.25c45.42,245.83 186.14,449.99 376.97,581.37 190.88,131.42 431.92,190.01 677.86,144.64l0.26 -0.05c245.82,-45.43 449.98,-186.15 581.35,-376.97 6.7,-9.73 13.2,-19.59 19.51,-29.58l0 9.04c-5.05,7.84 -10.22,15.62 -15.51,23.3 -132.12,191.91 -337.48,333.42 -584.74,379.04l-0.26 0.05c-247.18,45.52 -489.4,-13.38 -681.24,-145.47 -191.91,-132.12 -333.42,-337.48 -379.04,-584.74l-0.05 -0.26c-45.52,-247.18 13.38,-489.4 145.47,-681.24 132.12,-191.91 337.48,-333.42 584.74,-379.04l0.27 -0.05c247.17,-45.52 489.39,13.38 681.24,145.47 98.31,67.68 183.38,154.59 249.13,256.5l0 9.05c-65.94,-104.13 -152.05,-192.81 -251.89,-261.54 -190.88,-131.42 -431.92,-190.01 -677.86,-144.64z"/>
   <path class="fil0" d="M6003.31 3068.7l-0.25 0.04c-245.83,45.42 -449.99,186.15 -581.37,376.97 -113.41,164.72 -172.57,366.79 -157.5,577.13l-4.87 0c-15.06,-211.35 44.42,-414.37 158.38,-579.89 132.12,-191.91 337.47,-333.42 584.73,-379.04l0.28 -0.05c247.17,-45.52 489.39,13.38 681.24,145.47 191.91,132.12 333.42,337.47 379.04,584.73l0.05 0.26c14.2,77.12 18.24,153.74 13.06,228.51l-4.87 0c5.19,-74.56 1.17,-150.98 -13.02,-227.89l-0.04 -0.25c-45.42,-245.83 -186.15,-449.99 -376.97,-581.37 -190.88,-131.42 -431.92,-190.01 -677.85,-144.64z"/>
   <path class="fil0" d="M2916.77 2790c163.07,-30.08 322.89,8.77 449.46,95.91 126.56,87.14 219.89,222.57 249.98,385.64 30.08,163.07 -8.77,322.89 -95.91,449.46 -29.46,42.79 -64.44,81.77 -104.15,115.8l-7.52 0c41.18,-34.62 77.37,-74.57 107.66,-118.56 86.43,-125.54 124.97,-284.07 95.12,-445.82 -29.84,-161.75 -122.41,-296.09 -247.96,-382.52 -125.54,-86.43 -284.07,-124.97 -445.82,-95.12 -161.75,29.84 -296.09,122.42 -382.52,247.96 -86.43,125.54 -124.96,284.07 -95.12,445.82 26.15,141.73 100.45,262.4 202.9,348.25l-7.52 0c-101.01,-86.3 -174.18,-206.52 -200.17,-347.37 -30.08,-163.07 8.77,-322.89 95.91,-449.46 87.13,-126.57 222.57,-219.9 385.64,-249.98z"/>
   <path class="fil0" d="M165.28 1639.24c272.87,-50.35 540.3,14.66 752.09,160.48 211.79,145.82 367.95,372.44 418.3,645.31l0.05 0.26c50.25,272.79 -14.76,540.11 -160.53,751.83 -145.81,211.79 -372.43,367.95 -645.3,418.3l-0.27 0.05c-184.18,33.93 -365.86,15.3 -529.63,-45.24l0 -5.19c163.49,60.77 345.01,79.55 529.01,45.6l0.16 -0.03c271.48,-50.13 496.94,-205.52 642.02,-416.25 145.1,-210.76 209.8,-476.89 159.7,-748.45l-0.02 -0.12c-50.13,-271.49 -205.52,-496.98 -416.26,-642.06 -210.76,-145.1 -476.9,-209.8 -748.45,-159.7 -57.57,10.62 -113.06,25.99 -166.16,45.6l0 -5.18c52.85,-19.41 108.04,-34.64 165.28,-45.2z"/>
   <path class="fil1 str0" d="M6298.52 1008.57c264.25,-48.75 517.95,125.91 566.7,390.16 48.75,264.25 -125.91,517.95 -390.16,566.7 -264.25,48.75 -517.95,-125.91 -566.7,-390.16 -48.75,-264.25 125.91,-517.95 390.16,-566.7z"/>
   <path class="fil0" d="M782.94 3433.62c127.2,-23.47 251.88,6.84 350.61,74.81 98.73,67.97 171.54,173.62 195.01,300.83 23.47,127.2 -6.84,251.88 -74.81,350.62 -22.98,33.37 -50.27,63.79 -81.24,90.33l-5.87 0c32.13,-27 60.35,-58.16 83.98,-92.49 67.42,-97.93 97.49,-221.6 74.2,-347.77 -23.28,-126.18 -95.49,-230.97 -193.43,-298.39 -97.93,-67.42 -221.6,-97.49 -347.77,-74.2 -126.18,23.28 -230.97,95.49 -298.39,193.43 -67.42,97.93 -97.49,221.6 -74.2,347.77 20.4,110.56 78.36,204.69 158.28,271.66l-5.87 0c-78.8,-67.32 -135.87,-161.1 -156.14,-270.97 -23.47,-127.21 6.84,-251.88 74.81,-350.62 67.97,-98.73 173.62,-171.54 300.83,-195z"/>
   <path class="fil0" d="M4523.94 3030.28c204.62,-37.75 405.18,11 564,120.34 158.82,109.34 275.94,279.29 313.69,483.93 37.75,204.62 -11,405.18 -120.35,564 -36.96,53.69 -80.87,102.61 -130.68,145.31l-9.44 0c51.68,-43.44 97.08,-93.57 135.1,-148.78 108.45,-157.53 156.81,-356.46 119.36,-559.43 -37.44,-202.97 -153.61,-371.54 -311.15,-480 -157.53,-108.45 -356.46,-156.81 -559.43,-119.36 -202.97,37.44 -371.54,153.61 -480,311.15 -108.46,157.53 -156.82,356.46 -119.36,559.43 32.81,177.84 126.05,329.27 254.61,437l-9.44 0c-126.75,-108.29 -218.57,-259.15 -251.17,-435.89 -37.75,-204.62 11,-405.18 120.35,-564 109.34,-158.82 279.29,-275.94 483.92,-313.69z"/>
   <path class="fil1 str0" d="M2549.79 258.16c228.5,-42.16 447.88,108.88 490.04,337.38 42.16,228.5 -108.88,447.88 -337.37,490.03 -228.5,42.16 -447.88,-108.88 -490.04,-337.37 -42.16,-228.5 108.88,-447.88 337.37,-490.04z"/>
   <path class="fil1 str0" d="M479.98 2270.53c298.66,-55.1 585.39,142.3 640.49,440.96 55.1,298.66 -142.31,585.39 -440.96,640.49 -298.66,55.11 -585.38,-142.3 -640.49,-440.96 -55.11,-298.66 142.3,-585.39 440.96,-640.49z"/>
  </g>
  <path class="fil2 str1" d="M5916.94 138.21c278.16,213.96 330.2,612.84 116.24,891.01 -213.96,278.16 -612.84,330.2 -891.01,116.24 -278.16,-213.96 -330.2,-612.84 -116.24,-891 213.96,-278.16 612.84,-330.2 891.01,-116.24z"/>
  <path class="fil3" d="M2577.29 2103.37c56.88,19.44 87.24,81.3 67.8,138.18 -19.44,56.88 -81.3,87.24 -138.18,67.8 -56.89,-19.44 -87.24,-81.3 -67.8,-138.18 19.44,-56.89 81.3,-87.24 138.18,-67.8z"/>
  <path class="fil4 str2" d="M3449.87 1418.79c117.02,39.99 179.46,167.24 139.47,284.26 -39.99,117.02 -167.24,179.46 -284.26,139.47 -117.02,-39.99 -179.46,-167.24 -139.47,-284.26 39.99,-117.02 167.24,-179.46 284.26,-139.47z"/>
  <path class="fil5 str3" d="M3467.57 2773.57c152.62,52.15 234.06,218.12 181.91,370.75 -52.15,152.62 -218.13,234.06 -370.75,181.91 -152.63,-52.15 -234.06,-218.12 -181.91,-370.75 52.15,-152.62 218.12,-234.06 370.75,-181.91z"/>
  <path class="fil6 str4" d="M6166.92 2091.8c396.35,-73.13 776.88,188.85 850,585.21 73.13,396.35 -188.85,776.88 -585.2,850 -396.35,73.13 -776.88,-188.85 -850.01,-585.2 -73.13,-396.35 188.86,-776.88 585.21,-850.01z"/>
  <path class="fil7 str5" d="M4883.13 3621.97c202.5,69.19 310.55,289.41 241.35,491.91 -69.19,202.5 -289.41,310.55 -491.91,241.35 -202.5,-69.19 -310.55,-289.41 -241.35,-491.91 69.19,-202.5 289.41,-310.55 491.91,-241.35z"/>
  <path class="fil8" d="M537.2 638.19c66.87,22.85 102.55,95.57 79.7,162.44 -22.85,66.87 -95.57,102.55 -162.44,79.7 -66.87,-22.85 -102.55,-95.57 -79.7,-162.44 22.85,-66.87 95.57,-102.55 162.44,-79.7z"/>
  <path class="fil9" d="M6908.07 624.14c144.42,49.35 221.47,206.4 172.13,350.82 -49.35,144.42 -206.4,221.48 -350.82,172.13 -144.41,-49.35 -221.47,-206.4 -172.13,-350.81 49.35,-144.42 206.4,-221.48 350.82,-172.13z"/>
 </g>
</svg>
