<?xml version="1.0" encoding="UTF-8"?>
<!DOCTYPE svg PUBLIC "-//W3C//DTD SVG 1.0//EN" "http://www.w3.org/TR/2001/REC-SVG-20010904/DTD/svg10.dtd">
<!-- Creator: CorelDRAW 2020 (64-Bit) -->
<svg xmlns="http://www.w3.org/2000/svg" xml:space="preserve" width="228.87mm" height="147.761mm" version="1.0" style="shape-rendering:geometricPrecision; text-rendering:geometricPrecision; image-rendering:optimizeQuality; fill-rule:evenodd; clip-rule:evenodd"
viewBox="0 0 10798.42 6971.59"
 xmlns:xlink="http://www.w3.org/1999/xlink"
 xmlns:xodm="http://www.corel.com/coreldraw/odm/2003">
 <defs>
  <style type="text/css">
   <![CDATA[
    .str0 {stroke:#AE4A84;stroke-width:3.6;stroke-miterlimit:22.9256;stroke-opacity:0.101961}
    .fil0 {fill:none}
    .fil1 {fill:#FFED00;fill-opacity:0.101961}
    .fil4 {fill:#AE4A84;fill-opacity:0.101961}
    .fil5 {fill:#57B039;fill-opacity:0.101961}
    .fil3 {fill:#008DD2;fill-opacity:0.101961}
    .fil2 {fill:#FF4141;fill-opacity:0.101961}
   ]]>
  </style>
 </defs>
 <g id="Layer_x0020_1">
  <metadata id="CorelCorpID_0Corel-Layer"/>
  <path class="fil0 str0" d="M7228.82 2872.95c287.5,-53.04 563.51,136.99 616.55,424.48 53.05,287.5 -136.98,563.51 -424.48,616.55 -287.5,53.05 -563.51,-136.98 -616.55,-424.48 -53.04,-287.5 136.99,-563.51 424.48,-616.55z"/>
  <path class="fil0 str0" d="M9402.78 2170.72c339.99,-62.73 666.4,162 729.13,501.98 62.73,339.99 -162,666.4 -501.98,729.13 -339.99,62.73 -666.4,-162 -729.13,-501.98 -62.73,-339.99 162,-666.4 501.98,-729.13z"/>
  <path class="fil0 str0" d="M5345.27 805.76c293.99,-54.24 576.25,140.08 630.49,434.07 54.24,293.99 -140.08,576.24 -434.07,630.48 -293.99,54.24 -576.25,-140.08 -630.49,-434.07 -54.24,-293.99 140.08,-576.25 434.07,-630.49z"/>
  <path class="fil0 str0" d="M1350.67 5309.02c384.25,-70.89 753.17,183.09 824.06,567.34 70.89,384.25 -183.09,753.17 -567.35,824.06 -384.25,70.9 -753.16,-183.09 -824.06,-567.34 -70.9,-384.25 183.09,-753.17 567.34,-824.06z"/>
  <path class="fil1" d="M8911.83 1050.9c357.89,275.29 424.84,788.49 149.56,1146.38 -275.29,357.89 -788.49,424.84 -1146.38,149.56 -357.89,-275.28 -424.84,-788.49 -149.56,-1146.38 275.28,-357.89 788.49,-424.85 1146.38,-149.56z"/>
  <path class="fil2" d="M4615 3579.29c73.19,25.01 112.24,104.6 87.23,177.79 -25.01,73.19 -104.6,112.24 -177.79,87.23 -73.19,-25.01 -112.24,-104.6 -87.23,-177.79 25.01,-73.19 104.6,-112.24 177.79,-87.23z"/>
  <path class="fil3" d="M5737.67 2698.51c150.56,51.45 230.89,215.18 179.45,365.73 -51.45,150.56 -215.18,230.9 -365.74,179.45 -150.56,-51.45 -230.89,-215.18 -179.45,-365.74 51.45,-150.56 215.18,-230.89 365.73,-179.45z"/>
  <path class="fil4" d="M5760.45 4441.59c196.36,67.1 301.14,280.64 234.04,477.01 -67.1,196.36 -280.64,301.14 -477.01,234.04 -196.37,-67.1 -301.14,-280.64 -234.04,-477.01 67.1,-196.36 280.64,-301.14 477.01,-234.04z"/>
  <path class="fil2" d="M9233.46 3564.42c509.95,-94.08 999.54,242.98 1093.62,752.94 94.09,509.95 -242.98,999.54 -752.93,1093.62 -509.95,94.09 -999.54,-242.98 -1093.63,-752.93 -94.08,-509.95 242.98,-999.54 752.94,-1093.63z"/>
  <path class="fil5" d="M7581.72 5533.14c260.54,89.02 399.56,372.36 310.53,632.9 -89.02,260.54 -372.36,399.55 -632.89,310.53 -260.54,-89.03 -399.56,-372.36 -310.53,-632.9 89.02,-260.54 372.36,-399.56 632.89,-310.53z"/>
  <path class="fil5" d="M1990.2 1694.19c86.04,29.4 131.94,122.96 102.54,208.99 -29.4,86.04 -122.96,131.94 -209,102.54 -86.04,-29.4 -131.94,-122.96 -102.54,-208.99 29.4,-86.04 122.96,-131.94 208.99,-102.54z"/>
  <path class="fil5" d="M10187.03 1676.1c185.81,63.49 284.95,265.56 221.46,451.37 -63.49,185.81 -265.56,284.95 -451.37,221.46 -185.81,-63.49 -284.95,-265.56 -221.46,-451.36 63.49,-185.81 265.56,-284.95 451.37,-221.46z"/>
  <path class="fil0 str0" d="M5040.8 4452.51c426.9,-78.76 836.76,203.41 915.52,630.31 78.76,426.9 -203.41,836.76 -630.31,915.52 -426.9,78.76 -836.76,-203.41 -915.52,-630.31 -78.76,-426.9 203.41,-836.76 630.31,-915.52z"/>
  <path class="fil0 str0" d="M7083.24 4775.34c532.24,-98.2 1043.24,253.6 1141.44,785.85 98.2,532.24 -253.6,1043.24 -785.85,1141.44 -532.25,98.2 -1043.24,-253.6 -1141.44,-785.85 -98.2,-532.25 253.6,-1043.24 785.85,-1141.44z"/>
  <path class="fil0 str0" d="M8803.58 4459.91c634.56,-117.08 1243.79,302.35 1360.86,936.91 117.08,634.56 -302.36,1243.79 -936.92,1360.86 -634.56,117.08 -1243.78,-302.36 -1360.86,-936.92 -117.08,-634.56 302.35,-1243.78 936.91,-1360.86z"/>
  <path class="fil0 str0" d="M3472.6 1030.28c1248.23,-230.3 2446.61,594.75 2676.91,1842.98 230.3,1248.23 -594.75,2446.62 -1842.98,2676.91 -1248.23,230.3 -2446.61,-594.75 -2676.91,-1842.98 -230.3,-1248.23 594.75,-2446.61 1842.98,-2676.91z"/>
  <path class="fil0 str0" d="M1287.65 510.42c853.24,-157.43 1672.41,406.55 1829.84,1259.79 157.43,853.24 -406.55,1672.42 -1259.8,1829.84 -853.24,157.43 -1672.41,-406.55 -1829.83,-1259.8 -157.43,-853.24 406.55,-1672.41 1259.79,-1829.83z"/>
  <path class="fil0 str0" d="M6085.8 39.92c1248.23,-230.3 2446.61,594.75 2676.91,1842.98 230.3,1248.23 -594.75,2446.62 -1842.98,2676.91 -1248.23,230.3 -2446.61,-594.75 -2676.91,-1842.98 -230.3,-1248.23 594.75,-2446.61 1842.98,-2676.91z"/>
  <path class="fil0 str0" d="M1798.16 3059.51c711.99,-131.37 1395.54,339.24 1526.9,1051.23 131.36,711.99 -339.25,1395.55 -1051.24,1526.9 -711.99,131.37 -1395.54,-339.24 -1526.9,-1051.23 -131.36,-711.99 339.25,-1395.55 1051.24,-1526.9z"/>
  <path class="fil0 str0" d="M4845.78 2411.77c1248.23,-230.3 2446.61,594.75 2676.91,1842.98 230.3,1248.23 -594.75,2446.62 -1842.98,2676.91 -1248.23,230.3 -2446.61,-594.75 -2676.91,-1842.98 -230.3,-1248.23 594.75,-2446.61 1842.98,-2676.91z"/>
  <path class="fil0 str0" d="M9095.07 679.76c782.28,-144.33 1533.33,372.74 1677.65,1155.02 144.33,782.28 -372.74,1533.33 -1155.02,1677.65 -782.28,144.34 -1533.32,-372.74 -1677.65,-1155.02 -144.33,-782.28 372.74,-1533.32 1155.02,-1677.65z"/>
 </g>
</svg>
