<?xml version="1.0" encoding="UTF-8"?>
<!DOCTYPE svg PUBLIC "-//W3C//DTD SVG 1.0//EN" "http://www.w3.org/TR/2001/REC-SVG-20010904/DTD/svg10.dtd">
<!-- Creator: CorelDRAW 2020 (64-Bit) -->
<svg xmlns="http://www.w3.org/2000/svg" xml:space="preserve" width="51.2503mm" height="48.2803mm" version="1.0" style="shape-rendering:geometricPrecision; text-rendering:geometricPrecision; image-rendering:optimizeQuality; fill-rule:evenodd; clip-rule:evenodd"
viewBox="0 0 748.07 704.72"
 xmlns:xlink="http://www.w3.org/1999/xlink"
 xmlns:xodm="http://www.corel.com/coreldraw/odm/2003">
 <defs>
  <style type="text/css">
   <![CDATA[
    .fil1 {fill:none}
    .fil0 {fill:#393185;fill-opacity:0.501961}
   ]]>
  </style>
 </defs>
 <g id="Layer_x0020_1">
  <metadata id="CorelCorpID_0Corel-Layer"/>
  <path class="fil0" d="M522.93 55.03l185.06 242.4c46.84,61.36 34.97,149.87 -26.39,196.72l-164 125.21c-61.36,46.84 -149.87,34.97 -196.72,-26.39l-185.06 -242.4c-46.84,-61.36 -34.97,-149.87 26.39,-196.72l164 -125.21c61.36,-46.84 149.87,-34.97 196.72,26.39z"/>
  <path class="fil1" d="M358.79 35.35l304.39 136.12c72.94,32.62 105.16,118.64 71.59,191.16l-118.9 256.89c-33.57,72.52 -120.71,105.17 -193.65,72.55l-304.39 -136.12c-72.94,-32.62 -105.16,-118.64 -71.59,-191.16l118.9 -256.89c33.57,-72.52 120.71,-105.16 193.65,-72.55z"/>
  <path class="fil1" d="M115.73 145.55l300.24 -53.48c76,-13.54 149.24,37.56 162.78,113.56l36.18 203.13c13.54,76 -37.56,149.24 -113.56,162.78l-300.24 53.48c-76,13.54 -149.24,-37.56 -162.78,-113.56l-36.18 -203.13c-13.54,-76 37.56,-149.25 113.56,-162.78z"/>
 </g>
</svg>
